custom-analysis
version=1
nRows=7
nColumns=98
inDegrees=no

This file contains tibia displacement and acting force.

Units are S.I. units (seconds, meters, Newtons, ...)
Angles are in degrees.

endheader
time	APT	SIT	knee_angle	aACL_R_force	pACL_R_force	aPCL_R_force	pPCL_R_force	aMCL_R_force	mMCL_R_force	pMCL_R_force	aLCL_R_force	mLCL_R_force	pLCL_R_force	aPCL_L_force	pPCL_L_force	aMCL_L_force	aLCL_L_force	aACL_R_length	pACL_R_length	aPCL_R_length	pPCL_R_length	aMCL_R_length	mMCL_R_length	pMCL_R_length	aLCL_R_length	mLCL_R_length	pLCL_R_length	aPCL_L_length	pPCL_L_length	aMCL_L_length	aLCL_L_length	aACL_R_strain	pACL_R_strain	aPCL_R_strain	pPCL_R_strain	aMCL_R_strain	mMCL_R_strain	pMCL_R_strain	aLCL_R_strain	mLCL_R_strain	pLCL_R_strain	aPCL_L_strain	pPCL_L_strain	aMCL_L_strain	aLCL_L_strain	femur_lat_meniscii_r.femur_lat_r.force.X	femur_lat_meniscii_r.femur_lat_r.force.Y	femur_lat_meniscii_r.femur_lat_r.force.Z	femur_lat_meniscii_r.femur_lat_r.torque.X	femur_lat_meniscii_r.femur_lat_r.torque.Y	femur_lat_meniscii_r.femur_lat_r.torque.Z	femur_lat_meniscii_r.meniscus_lat_r.force.X	femur_lat_meniscii_r.meniscus_lat_r.force.Y	femur_lat_meniscii_r.meniscus_lat_r.force.Z	femur_lat_meniscii_r.meniscus_lat_r.torque.X	femur_lat_meniscii_r.meniscus_lat_r.torque.Y	femur_lat_meniscii_r.meniscus_lat_r.torque.Z	femur_med_meniscii_r.femur_med_r.force.X	femur_med_meniscii_r.femur_med_r.force.Y	femur_med_meniscii_r.femur_med_r.force.Z	femur_med_meniscii_r.femur_med_r.torque.X	femur_med_meniscii_r.femur_med_r.torque.Y	femur_med_meniscii_r.femur_med_r.torque.Z	femur_med_meniscii_r.meniscus_med_r.force.X	femur_med_meniscii_r.meniscus_med_r.force.Y	femur_med_meniscii_r.meniscus_med_r.force.Z	femur_med_meniscii_r.meniscus_med_r.torque.X	femur_med_meniscii_r.meniscus_med_r.torque.Y	femur_med_meniscii_r.meniscus_med_r.torque.Z	femur_med_tibia_r.tibia_upper_r.force.X	femur_med_tibia_r.tibia_upper_r.force.Y	femur_med_tibia_r.tibia_upper_r.force.Z	femur_med_tibia_r.tibia_upper_r.torque.X	femur_med_tibia_r.tibia_upper_r.torque.Y	femur_med_tibia_r.tibia_upper_r.torque.Z	femur_med_tibia_r.femur_med_r.force.X	femur_med_tibia_r.femur_med_r.force.Y	femur_med_tibia_r.femur_med_r.force.Z	femur_med_tibia_r.femur_med_r.torque.X	femur_med_tibia_r.femur_med_r.torque.Y	femur_med_tibia_r.femur_med_r.torque.Z	femur_lat_tibia_r.tibia_upper_r.force.X	femur_lat_tibia_r.tibia_upper_r.force.Y	femur_lat_tibia_r.tibia_upper_r.force.Z	femur_lat_tibia_r.tibia_upper_r.torque.X	femur_lat_tibia_r.tibia_upper_r.torque.Y	femur_lat_tibia_r.tibia_upper_r.torque.Z	femur_lat_tibia_r.femur_lat_r.force.X	femur_lat_tibia_r.femur_lat_r.force.Y	femur_lat_tibia_r.femur_lat_r.force.Z	femur_lat_tibia_r.femur_lat_r.torque.X	femur_lat_tibia_r.femur_lat_r.torque.Y	femur_lat_tibia_r.femur_lat_r.torque.Z	femur_lat_meniscii_force_r	femur_med_meniscii_force_r	femur_lat_tibia_force_r	femur_med_tibia_force_r
      0.00000000	      0.00000000	      0.00000000	      1.66574369	     17.58855542	     41.35427838	      0.00000000	      0.00000000	      0.00000000	      4.34794595	     47.41152007	      1.86146449	      0.00000000	      2.98101398	      0.00000000	      0.00000000	      0.00000001	      0.00000000	      0.03250699	      0.02691945	      0.02939526	      0.02968776	      0.05649158	      0.06132051	      0.06358360	      0.05697715	      0.05538222	      0.05352596	      0.01525851	      0.01651186	      0.06550154	      0.04489616	      0.04842665	      0.07425566	     -0.05467185	     -0.00669289	     -0.05889721	      0.02553805	      0.08267947	      0.01786360	     -0.01662651	      0.02260599	      0.00000079	     -0.32847694	      0.00000060	     -0.00000086	     -0.28299364	      0.13243531	      0.00246511	     -0.00349976	     -0.00837665	      0.05534422	      0.28299364	     -0.13243531	     -0.00246511	      0.00419209	      0.00891056	     -0.00454827	     -3.64420958	      0.08239415	      0.29868801	      0.00646305	     -0.04628927	      0.09076941	      3.64420958	     -0.08239415	     -0.29868801	     -0.00624440	     -0.04962961	     -0.06164219	      0.00000000	      0.00000000	      0.00000000	      0.00000000	      0.00000000	      0.00000000	      0.00000000	      0.00000000	      0.00000000	      0.00000000	      0.00000000	      0.00000000	      0.00000000	      0.00000000	      0.00000000	      0.00000000	      0.00000000	      0.00000000	      0.00000000	      0.00000000	      0.00000000	      0.00000000	      0.00000000	      0.00000000	      0.31245893	      3.65735789	      0.00000000	      0.00000000
      0.00100000	      0.00000564	      0.00013035	      1.66836692	    -69.39698774	    -51.83168885	      0.00000000	      0.00000000	      0.00000000	   -151.39260316	   -109.83145628	   -187.04230613	      0.00000000	   -189.68752043	      0.00000000	      0.00000000	      0.00000001	      0.00000000	      0.03238638	      0.02679809	      0.02929683	      0.02958267	      0.05637306	      0.06119886	      0.06346178	      0.05685945	      0.05526297	      0.05340615	      0.01525851	      0.01651186	      0.06550154	      0.04489616	      0.04453672	      0.06941254	     -0.05783748	     -0.01020922	     -0.06087157	      0.02350356	      0.08060521	      0.01576088	     -0.01874389	      0.02031701	      0.00000079	     -0.32847694	      0.00000060	     -0.00000086	     -7.22888719	      0.16847141	      1.42217110	     -0.00066460	     -0.79133316	      0.08608134	      7.22888719	     -0.16847141	     -1.42217110	      0.00052655	      0.28154056	     -0.02639266	    -25.20520929	      1.15031665	      5.60384521	      0.09752066	     -1.82669291	      0.77972845	     25.20520929	     -1.15031665	     -5.60384521	     -0.09552975	     -0.19915220	     -0.35492290	      0.00000000	      0.00000000	      0.00000000	      0.00000000	      0.00000000	      0.00000000	      0.00000000	      0.00000000	      0.00000000	      0.00000000	      0.00000000	      0.00000000	      0.00000000	      0.00000000	      0.00000000	      0.00000000	      0.00000000	      0.00000000	      0.00000000	      0.00000000	      0.00000000	      0.00000000	      0.00000000	      0.00000000	      7.36938011	     25.84625476	      0.00000000	      0.00000000
      0.00259561	      0.00006324	      0.00060936	      1.69182933	   -112.38182582	   -107.19316144	      0.00000000	      0.00000000	      0.00000000	   -211.73783944	   -175.61395456	   -261.02558449	      0.00000000	   -266.95918651	      0.00000000	      0.00000000	      0.00000001	      0.00000000	      0.03193441	      0.02633637	      0.02894429	      0.02920319	      0.05595362	      0.06076301	      0.06302454	      0.05643815	      0.05483553	      0.05297561	      0.01525851	      0.01651186	      0.06550154	      0.04489616	      0.02995964	      0.05098702	     -0.06917485	     -0.02290594	     -0.06785918	      0.01621437	      0.07316001	      0.00823453	     -0.02633353	      0.01209164	      0.00000079	     -0.32847694	      0.00000060	     -0.00000086	   -119.58186965	     -1.74594954	     46.44345135	      0.23957096	    -22.68962071	     -0.31887836	    119.58186965	      1.74594954	    -46.44345135	     -0.28094841	      5.43511817	     -0.43630848	   -208.46323677	     13.90551966	     81.20572060	      1.26202019	    -29.88370405	      8.17936930	    208.46323677	    -13.90551966	    -81.20572060	     -1.24910744	     -0.28868779	     -2.97955556	     41.55718324	     -2.40210279	    -14.86130144	     -0.23157193	      0.27700741	     -0.68983826	    -41.55718324	      2.40210279	     14.86130144	      0.23321752	     -5.78167042	      1.58418473	      0.00000000	      0.00000000	      0.00000000	      0.00000000	      0.00000000	      0.00000000	      0.00000000	      0.00000000	      0.00000000	      0.00000000	      0.00000000	      0.00000000	    128.29600953	    224.15319230	      0.00000000	     44.19986263
      0.00325008	      0.00010543	      0.00081526	      1.71051775	    -97.35906494	    -94.12456719	      0.00000000	      0.00000000	      0.00000000	   -191.72801383	   -158.19072074	   -237.86432305	      0.00000000	   -244.00867749	      0.00000000	      0.00000000	      0.00000001	      0.00000000	      0.03174628	      0.02614242	      0.02879024	      0.02903731	      0.05577676	      0.06057766	      0.06283818	      0.05625722	      0.05465183	      0.05279006	      0.01525851	      0.01651186	      0.06550154	      0.04489616	      0.02389181	      0.04324728	     -0.07412893	     -0.02845613	     -0.07080549	      0.01311442	      0.06998668	      0.00500246	     -0.02959531	      0.00854673	      0.00000079	     -0.32847694	      0.00000060	     -0.00000086	   -185.44728261	      6.74796582	     58.48217282	      0.06732797	    -29.42581230	      3.51700174	    185.44728261	     -6.74796582	    -58.48217282	     -0.07383100	      7.86991544	     -1.05039561	   -286.64674033	     28.57726101	     92.44890688	      1.71773235	    -32.91845366	     15.26174556	    286.64674033	    -28.57726101	    -92.44890688	     -1.63953924	     -1.18936900	     -4.47609126	    414.66078513	    -40.29851384	   -131.80041844	     -2.25790465	      1.11476566	     -7.40901752	   -414.66078513	     40.29851384	    131.80041844	      2.36719355	    -49.71117349	     22.61140351	      0.01734249	     -0.00043478	     -0.00639645	     -0.00002632	      0.00070601	     -0.00011935	     -0.01734249	      0.00043478	      0.00639645	      0.00002411	     -0.00307820	      0.00027460	    194.56719716	    302.53894620	      0.01848960	    436.96554469
      0.00406506	      0.00015252	      0.00100854	      1.73997907	    -48.69328302	    -44.36033347	      0.00000000	      0.00000000	      0.00000000	   -114.39810174	    -83.98425732	   -143.12888604	      0.00000000	   -148.55463736	      0.00000000	      0.00000000	      0.00000001	      0.00000000	      0.03158405	      0.02597582	      0.02863895	      0.02887532	      0.05560785	      0.06040059	      0.06265921	      0.05608338	      0.05447503	      0.05261085	      0.01525851	      0.01651186	      0.06550154	      0.04489616	      0.01865955	      0.03659894	     -0.07899429	     -0.03387599	     -0.07361934	      0.01015315	      0.06693933	      0.00189689	     -0.03273474	      0.00512306	      0.00000079	     -0.32847694	      0.00000060	     -0.00000086	   -195.27182151	     29.69659063	     18.96273920	     -0.70355625	    -12.95607431	     13.26443472	    195.27182151	    -29.69659063	    -18.96273920	      0.83624102	      6.62623294	     -1.98524654	   -271.50851993	     31.45174668	     37.43689331	      1.12515523	     -9.92589573	     16.31688144	    271.50851993	    -31.45174668	    -37.43689331	     -0.99583249	     -3.12706681	     -4.41283016	   1210.39636429	   -117.48340147	    -59.67217846	     -2.23353384	    -12.69255506	    -20.69251190	  -1210.39636429	    117.48340147	     59.67217846	      2.76835978	     -4.31804174	     65.03166982	     44.00001171	     -4.22842236	     -8.78023079	      0.05773429	      1.51241613	     -0.43865391	    -44.00001171	      4.22842236	      8.78023079	     -0.04276725	     -4.66981626	      2.03421231	    198.42519308	    275.87607679	     45.06631823	   1217.54773097
      0.00458264	      0.00017824	      0.00107439	      1.76266077	    -19.17628156	    -14.83240823	      0.00000000	      0.00000000	      0.00000000	    -56.58259872	    -27.62267897	    -73.82318233	      0.00000000	    -78.87164463	      0.00000000	      0.00000000	      0.00000001	      0.00000000	      0.03153681	      0.02592662	      0.02858502	      0.02881775	      0.05555092	      0.06033998	      0.06259685	      0.05602283	      0.05441303	      0.05254729	      0.01525851	      0.01651186	      0.06550154	      0.04489616	      0.01713591	      0.03463534	     -0.08072855	     -0.03580240	     -0.07456771	      0.00913952	      0.06587746	      0.00081510	     -0.03383561	      0.00390868	      0.00000079	     -0.32847694	      0.00000060	     -0.00000086	   -167.99399113	     40.04488344	     10.24975818	     -1.02645007	     -8.57707220	     17.53389264	    167.99399113	    -40.04488344	    -10.24975818	      1.21486784	      5.45838727	     -2.26129537	   -221.38736549	     26.62585175	     29.61654332	      0.88740258	     -7.72641078	     13.72235521	    221.38736549	    -26.62585175	    -29.61654332	     -0.77629504	     -2.56929132	     -3.63577484	   1426.95891983	   -121.26272885	     43.58843729	     -0.89616566	    -20.09876855	    -23.44785519	  -1426.95891983	    121.26272885	    -43.58843729	      1.51310830	     43.77756042	     69.12517813	     74.43184885	     -9.01521358	    -17.95042639	      0.12960484	      2.69405544	     -0.81638369	    -74.43184885	      9.01521358	     17.95042639	     -0.09690909	     -9.22486257	      4.23191403	    173.00471464	    224.94097274	     77.09469506	   1432.76528439
      0.00510022	      0.00020578	      0.00110374	      1.78918780	      0.43370460	      4.50814429	      0.00000000	      0.00000000	      0.00000000	    -16.64785212	     11.38069230	    -27.88553262	      0.00000000	    -32.86533362	      0.00000000	      0.00000000	      0.00000001	      0.00000000	      0.03152274	      0.02590986	      0.02855993	      0.02879085	      0.05552909	      0.06031483	      0.06256952	      0.05599538	      0.05438441	      0.05251699	      0.01525851	      0.01651186	      0.06550154	      0.04489616	      0.01668230	      0.03396679	     -0.08153553	     -0.03670210	     -0.07493137	      0.00871890	      0.06541212	      0.00032484	     -0.03434368	      0.00332974	      0.00000079	     -0.32847694	      0.00000060	     -0.00000086	   -143.27302736	     46.11397679	     10.30324706	     -1.19668054	     -7.97238405	     19.99560154	    143.27302736	    -46.11397679	    -10.30324706	      1.41417351	      4.71110462	     -2.37480306	   -183.03916297	     23.59472863	     31.38668231	      0.81264800	     -9.31151046	     11.99442275	    183.03916297	    -23.59472863	    -31.38668231	     -0.71692854	     -1.85223468	     -3.04394038	   1463.88957546	   -115.76355815	     80.63098122	     -0.30170898	    -22.28656319	    -23.54647348	  -1463.88957546	    115.76355815	    -80.63098122	      0.91116529	     60.34533197	     67.12329352	     84.73424252	    -12.62675650	    -25.83864793	      0.17806172	      3.28681085	     -1.02371917	    -84.73424252	     12.62675650	     25.83864793	     -0.13222591	    -12.79703857	      5.82146219	    150.86356792	    187.20355292	     89.48163254	   1470.67169881
